<svg width="47" height="55" viewBox="0 0 47 55" fill="none" xmlns="http://www.w3.org/2000/svg">
<path d="M41.3333 12.9167H36.1667C36.1667 5.68333 30.4833 0 23.25 0C16.0167 0 10.3333 5.68333 10.3333 12.9167H5.16667C2.325 12.9167 0 15.2417 0 18.0833V49.0833C0 51.925 2.325 54.25 5.16667 54.25H41.3333C44.175 54.25 46.5 51.925 46.5 49.0833V18.0833C46.5 15.2417 44.175 12.9167 41.3333 12.9167ZM23.25 5.16667C27.6417 5.16667 31 8.525 31 12.9167H15.5C15.5 8.525 18.8583 5.16667 23.25 5.16667ZM41.3333 49.0833H5.16667V18.0833H41.3333V49.0833ZM23.25 28.4167C18.8583 28.4167 15.5 25.0583 15.5 20.6667H10.3333C10.3333 27.9 16.0167 33.5833 23.25 33.5833C30.4833 33.5833 36.1667 27.9 36.1667 20.6667H31C31 25.0583 27.6417 28.4167 23.25 28.4167Z" fill="white"/>
</svg>
